<?xml version="1.0" encoding="UTF-8"?>
<svg width="1200pt" height="1200pt" version="1.1" viewBox="0 0 1200 1200" xmlns="http://www.w3.org/2000/svg">
 <path d="m121 640c0 0.19922-0.19922 0.60156 0 0.80078 21 245.8 231 438.4 478.2 438.4 264.6 0 480-215.4 480-480 0-247-192.6-457-438.2-478.2-0.39844 0-0.60156 0.19922-1 0-0.19922 0-0.60156-0.19922-0.80078-0.19922-0.80078 0-1.6016 0.39844-2.1992 0.39844-1.8008 0.19922-3.6016 0.39844-5.1992 1-0.39844 0.19922-0.80078 0.39844-1.1992 0.60156-1.8008 1-3.6016 2-5.1992 3.3984-0.60156 0.39844-0.80078 1-1.1992 1.6016-1.1992 1.3984-2.1992 2.6016-3 4.3984-0.60156 1.4023-0.80469 2.6016-1.2031 3.8008-0.19922 1-0.80078 2-1 3.1992 0 0.19922 0.19922 0.60156 0 0.80078 0 0.39844-0.19922 0.60156-0.19922 0.80078v478.2h-478c-0.19922 0-0.60156 0.19922-0.80078 0.19922-0.39844 0-0.60156-0.19922-0.80078 0-1.1992 0-2 0.60156-3 0.80078-1.1992 0.39844-2.6016 0.60156-3.8008 1-1.1992 0.60156-2.1992 1.3984-3.1992 2.1992s-2 1.3984-3 2.3984c-0.80078 1-1.3984 2-2.1992 3.1992-0.60156 1-1.3984 2-1.8008 3.3984-0.39844 1.1992-0.60156 2.6016-0.80078 3.8008-0.19922 1-0.60156 2-0.60156 3 0.003906 0.40234 0.20312 0.60547 0.20312 1.0039zm518.2 19.199c11 0 20-9 20-20v-475.4c214.8 29.398 380 216.2 380 435.4 0 242.6-197.4 440-440 440-219 0-405.8-165.2-435.4-380z"/>
 <path d="m140.8 579.2h418.2c11 0 20-9 20-20v-418.2c0-5.6016-2.3984-11-6.3984-14.801-4.1992-3.8008-9.8008-5.8008-15.199-5.1992-35.602 3-70 10.398-102.8 20.602-1.3984 0.39844-3 0.60156-4.1992 1.3984-180 58.199-312.6 218.6-329.2 414.4-0.39844 5.6016 1.3984 11.199 5.1992 15.199 3.5977 4.2031 8.7969 6.6016 14.398 6.6016zm338.4-403.2c19.602-5.3984 39.398-10 60-12.801v375.8h-60zm-100 41.801c19.199-11 39.199-20.602 60-28.801v350h-60zm-100 79c18.398-19.398 38.398-37.398 60-53.199v295.4h-60zm-40 48.801v193.6l-76-0.003906c9.6016-71.598 36.402-137.4 76-193.6z"/>
</svg>
